<svg version="1" xmlns="http://www.w3.org/2000/svg" width="933.333" height="933.333" viewBox="0 0 700.000000 700.000000"><path d="M348.7 19.7c-.4.3-48.3.6-106.5.6H136.3l-7.8 24.1c-4.3 13.3-10.2 31.3-13.1 40.1-2.8 8.8-10.2 31.5-16.4 50.5-23.9 73.4-28.3 86.5-29.2 87.7-.6.7-.8 1.3-.5 1.3.3 0 .2 1.2-.3 2.7-3.2 10-27.7 85.5-35 107.8-23.9 72.9-28.3 86.3-29.5 90.3L3.2 429l21.6 15.7c12 8.6 26.2 19 31.7 23s10.9 7.9 12 8.7c48.9 35.4 274.8 199.4 277.7 201.7 4.4 3.5 4.6 3.5 8.5.6 1.7-1.2 4.1-2.9 5.3-3.7 1.2-.8 9.9-7.1 19.3-14 9.5-6.9 18.2-13.2 19.4-14 1.2-.8 7-5.1 13-9.5 5.9-4.3 16.7-12.1 23.8-17.3 7.2-5.1 14.2-10.3 15.7-11.4 1.5-1.1 43.3-31.5 93-67.6 49.7-36.1 100.4-72.9 112.8-81.9 12.4-9 26.9-19.5 32.2-23.4l9.6-7-2.5-7.7c-1.3-4.2-3.5-10.9-4.8-14.7-2.4-7.3-6.7-20.3-26-80-10.6-32.6-24.8-76.5-43.5-134-3.7-11.6-11.6-35.9-17.4-54-5.9-18.2-11.3-34.8-12.1-37-.7-2.2-6.4-19.5-12.5-38.5s-11.8-36.3-12.7-38.6l-1.4-4.1h-107c-58.8 0-107.2-.3-107.6-.6-.8-.9-1.8-.9-2.6 0zm-31.1 22.6c-1.6 1.2-4.8 3.5-7.1 5.2-6.7 4.7-61.9 44.9-63 45.8-.5.4-9.1 6.6-19 13.7s-19.3 13.9-21 15.2c-1.6 1.3-8.8 6.6-16 11.8-7.1 5.2-16.1 11.7-20 14.5-3.8 2.9-18 13.2-31.5 22.9s-25.2 18.2-26 18.9c-3.9 3.2-15.2 10.9-15.4 10.5-.2-.1 3.6-12.2 8.4-26.8 4.8-14.6 13.8-42 20-61 21.6-66.4 23.3-71.5 23.7-72.3.2-.4 38.5-.7 85.1-.7l84.7.1-2.9 2.2zm235.8 3.4c.9 3.2 2.1 6.7 2.6 7.8.5 1.1 5 14.8 10 30.5 8.8 27.4 15.5 48.1 31 95.3 3.9 12 7 22.2 6.8 22.7-.2.4-13.4-8.7-29.3-20.4-16-11.6-40.6-29.4-54.5-39.5-14-10.1-26.1-19.2-26.9-20.2-.7-1-1.9-1.9-2.5-1.9-.7 0-4.6-2.5-8.7-5.5-11.5-8.4-13.7-10-41.4-30-36.8-26.6-58.8-42.6-59.9-43.6-.6-.5 37.1-.9 85-.9h86l1.8 5.7zm-178.3 16c13.4 9.7 26 18.8 28 20.2 24.6 17.4 51.6 37.6 51 38.1-.5.3-23.3.4-50.8.2-59.7-.4-44.8-.4-106.1 0-28.3.2-51.5.1-51.7-.2-.4-.7 102.7-75.8 104.1-75.9.6-.1 12.1 7.9 25.5 17.6zM320 140.4c0 .3-45.2 33.2-60.6 44.1-2.3 1.6-17.6 12.7-33.9 24.5-16.4 11.8-30.3 21.8-31 22.2-.9.6-.7-.9.5-5 2.1-6.6 14.6-45.1 22.6-69.5l5.6-16.7h48.4c26.6 0 48.4.2 48.4.4zm165 21.3c5.9 18.2 18.6 56.8 22 67.7l1 2.8-3.3-2.4c-1.7-1.4-22.1-16.1-45.2-32.8-23.1-16.7-45.1-32.6-49-35.5-6.1-4.4-13.3-9.7-22.4-16.2-7.8-5.7-11.3-5.2 41.6-5.3h48.2l7.1 21.7zm-103.8 3l30 21.8-30.1.3c-16.6.1-43.7.1-60.3 0l-30.2-.3 8.9-6.5c5-3.6 10.1-7.3 11.5-8.2 1.4-.9 10.8-7.8 21-15.2 10.2-7.4 18.7-13.5 18.8-13.6.2 0 13.9 9.8 30.4 21.7zm-187.4 1.5c-2.2 6.8-4.3 13.2-4.8 14.3-.5 1.1-2.2 6.3-3.8 11.5-11.1 35.1-19.5 60-20.7 61-.8.6-1.1 1.8-.9 2.5.3.8-2.9 12.1-7.1 25.2-4.3 13.1-10.9 33.5-14.7 45.3-3.8 11.8-7.5 23-8.2 24.8-1.2 3.2-1.2 3-5.9-11.5-4.9-15.1-23.1-71.1-31-95.3-2.4-7.4-4.4-13.5-4.3-13.6.1-.1 16.8-12.2 37.1-26.9 20.4-14.7 39.9-29 43.5-31.6 6-4.4 24.4-17.8 24.6-17.9 0 0-1.7 5.5-3.8 12.2zM575 206.4c17.3 12.6 31.9 23.2 32.3 23.6.5.4-.1 3.4-1.1 6.6-1.1 3.2-7.2 22.1-13.7 41.9-17.5 54.1-23.7 73-24 73.3-.3.3-5.7-16.1-29.3-88.3-.9-2.8-1.5-6-1.3-7.3.1-1.3-.4-2.9-1.2-3.5-1.2-.9-32.7-94.7-32.7-97.3 0-.3 10.8 7.5 71 51zm-137.9 17.9c3.1 9.4 11.6 35.2 18.7 57.2 7.2 22 15.8 48.1 19 58 4.4 13.4 5.7 18.3 4.8 19.1-.6.7-18.2 13.5-39.1 28.5-20.9 15-41.6 29.9-46 33.1C358.9 446 351.9 451 351 451c-.5 0-9.2-5.9-19.2-13.2-10.1-7.2-19.9-14.3-22-15.7-2-1.4-11.4-8.2-21-15.1-9.5-6.8-24-17.3-32.3-23.2-8.2-5.9-15.4-11.1-16-11.5-.5-.5-5.1-3.7-10.2-7.3-5.1-3.6-9.2-7-9.2-7.5-.1-.6 5.7-18.3 12.7-39.5 7.1-21.2 18.2-54.8 24.7-74.8l11.9-36.2h161.1l5.6 17.3zm-207 41.9c-8.3 24.9-16.3 49.2-17.8 54-1.5 4.8-3.1 8.8-3.4 8.8-.4 0-3.8-9.2-4.4-12 0-.3-4-12.5-8.8-27.1-4.8-14.6-8.7-27-8.7-27.6 0-.6 5.3-4.9 11.8-9.5 32.5-23.4 44.2-32 44.9-33.1 2.9-4.7-.5 7-13.6 46.5zm229.7-44.5c1.5 1 3.4 2.3 4.2 3 .8.7 12.5 9.1 26 18.9 13.5 9.7 24.6 17.8 24.8 17.9.3.2-15.1 48-20.6 63.8l-1.6 4.7-8.9-27.2c-4.9-15-13-39.8-18.1-55.1-5-15.2-9-27.7-8.8-27.7.1 0 1.5.8 3 1.7zm177.7 82.8C643.9 324.3 650 343 651 346s6 18.3 11 34 10 30.9 11.1 33.8c1 2.9 1.9 5.9 1.9 6.7 0 .7-9.3 8.1-20.7 16.3-11.5 8.3-43.1 31.2-70.3 51-27.2 19.8-49.7 35.8-49.9 35.6-.3-.3 3.3-12 4.9-15.9.4-1.1 2.2-6.3 3.8-11.5 2.7-8.4 20-62 29.9-92.3 2.2-6.7 4.2-11.2 5.5-12.1 1.5-1.1 1.8-2.1 1.4-4.3-.5-1.9.8-7.1 3.9-16.8 2.5-7.7 9.1-28 14.6-45 5.5-17.1 11-33.6 12.1-36.9 1.1-3.2 2.1-6.3 2.2-7 .3-1.4 5.2-16.6 7.4-22.5l1.6-4.3 2.2 6.8c1.2 3.8 7.5 23.1 13.9 42.9zM92.8 296c3.3 10.2 11.3 34.6 17.7 54.4 6.4 19.7 11.5 36.6 11.2 37.7-.3 1 .1 2.3.8 2.9 1.6 1.4 2.6 4 14.5 41 16.6 51.5 24 74 27 82.8 1.5 4.5 2.3 7.9 1.7 7.5-.7-.4-19.2-13.8-41.2-29.8-22-15.9-41.1-29.8-42.5-30.7-1.4-1-8.3-6-15.5-11.2-7.1-5.3-18.1-13.3-24.4-17.8-6.2-4.6-12.3-9-13.4-9.9l-2.1-1.6 3.8-11.9c2-6.6 4.1-12.8 4.6-13.9.4-1.1 5.2-15.5 10.5-32 15.8-49.2 33.7-103.9 34.3-104.9.3-.5 2 3.5 3.8 9 1.7 5.4 5.9 18.2 9.2 28.4zm93.4 28.6c6.1 18.6 11.2 35.6 11.3 37.6.2 2 1 4.4 1.8 5.3.9.8 1.9 2.5 2.2 3.8.4 1.2 4.3 13.2 8.7 26.7 4.4 13.5 9.2 28.4 10.8 33.3l2.8 8.7-5.2-3.7c-2.8-2.1-7.8-5.7-11.1-8.1-3.3-2.4-7.1-5.2-8.5-6.2-1.4-1-14.1-10.3-28.2-20.6-14.2-10.2-25.8-19.3-25.8-20 0-.7 1.1-4.6 2.4-8.6 1.3-4 7.4-22.8 13.6-41.8 13-40.1 13.3-41 13.7-40.6.2.1 5.3 15.5 11.5 34.2zM542 336.1c8.3 25.3 15 46.2 14.8 46.4-2.5 2.3-78.1 56.5-78.4 56.2-.3-.3 0-1.5.5-2.8.6-1.3 5.8-17.1 11.6-35.1 5.8-17.9 11.2-33.2 12.1-33.9.8-.7 1.2-1.9.9-2.7-.3-.8 3.8-14.8 9-31 5.3-16.2 10.6-32.5 11.8-36.3 1.2-3.8 2.3-6.9 2.4-6.9.1 0 7 20.7 15.3 46.1zm-272 81.8c19.5 14 38.8 27.8 42.9 30.8l7.4 5.3h-71l-7.2-22.3c-4-12.2-8.8-26.8-10.7-32.5-1.9-5.6-3.4-10.5-3.4-10.8 0-.7-1.3-1.5 42 29.5zm192.7 4.1l-10.4 31.5-35.3.3-35.4.2 18-12.9c9.8-7.1 30.3-21.9 45.4-32.8 15.1-10.9 27.6-19.4 27.7-18.8.2.5-4.4 15.2-10 32.5zm-302.6-3.7c6.9 5.1 39.7 29 42.3 30.7 1.2.8 9.4 6.8 18.2 13.2 12.3 9.1 59.6 43.5 78.4 57.1 7.4 5.3 17.6 12.9 18.2 13.5.4.4-27.8.7-62.7.7l-63.5.1-6.4-19.6c-16.5-50.1-32.6-99.8-32.6-100.4 0-.9 3 .8 8.1 4.7zm388.6-4.6c-.2.5-4.8 14.3-10.1 30.8-5.4 16.5-14.1 43.3-19.4 59.5l-9.7 29.5h-63.2c-34.8 0-63.3-.1-63.3-.2s7.3-5.5 16.3-12c8.9-6.4 27-19.6 40.2-29.2 13.2-9.6 24.8-17.6 25.8-17.9.9-.2 1.7-.8 1.7-1.3 0-.4 4.5-4.1 10.1-8.1 5.5-4 12.4-9 15.2-11.1 2.9-2 6.3-4.5 7.7-5.4 1.4-1 6.6-4.7 11.5-8.4 13.7-10.1 37-26.9 37.3-26.9.2 0 .1.3-.1.7zM349.5 475c1.2 1 1.8 1 3 0s10.2-1.3 39.3-1.3c21.8 0 37.5.4 37.3.9-.2.5-17.9 13.6-39.3 29.1-30.8 22.4-39.3 28.1-40.6 27.4-1.4-.8-13.7-9.6-22.1-15.8-3.4-2.6-51.5-37.5-54-39.3-1.7-1.2-1.8-1.6-.7-2 .9-.3 18.2-.4 38.6-.4 27.7.1 37.4.5 38.5 1.4zm-1.3 80.2c2.6 1.7 2.8 1.7 4.4 0 1.6-1.6 6.6-1.7 71.1-1.7 52.2-.1 69 .2 68.1 1.1-1.3 1.2-62.5 45.8-66.4 48.4-1.3.8-10.3 7.3-20.1 14.5-9.7 7.1-18.7 13.7-19.9 14.5-2.8 1.9-16.9 12.2-24.3 17.7-11.1 8.4-5.8 10.5-46.1-18.9-19.5-14.3-36.6-26.7-38-27.6-3.9-2.6-68-49.3-68-49.6 0-.1 30.7-.2 68.3-.1 63.1 0 68.5.1 70.9 1.7z"/></svg>