<?xml version="1.0" standalone="no"?>
<!DOCTYPE svg PUBLIC "-//W3C//DTD SVG 20010904//EN"
 "http://www.w3.org/TR/2001/REC-SVG-20010904/DTD/svg10.dtd">
<svg version="1.0" xmlns="http://www.w3.org/2000/svg"
 width="1772.000000pt" height="1772.000000pt" viewBox="0 0 1772.000000 1772.000000"
 preserveAspectRatio="xMidYMid meet">
<metadata>
Created by potrace 1.14, written by Peter Selinger 2001-2017
</metadata>
<g transform="translate(0.000000,1772.000000) scale(0.100000,-0.100000)"
fill="#000000" stroke="none">
<path d="M4557 13344 c-1 -1 -90 -5 -197 -8 -107 -4 -208 -9 -225 -11 -16 -2
-59 -6 -95 -9 -110 -11 -222 -26 -305 -41 -103 -18 -114 -20 -170 -29 -16 -2
-57 -11 -90 -20 -33 -8 -71 -17 -85 -20 -14 -3 -43 -10 -65 -16 -22 -6 -50
-13 -61 -15 -12 -3 -53 -15 -90 -26 -38 -12 -76 -23 -84 -24 -8 -2 -15 -4 -15
-5 0 -1 -7 -3 -15 -5 -46 -12 -307 -108 -337 -124 -16 -8 -49 -22 -63 -26 -8
-2 -140 -63 -220 -103 -41 -20 -77 -40 -78 -45 -2 -4 -8 -5 -13 -1 -5 3 -9 0
-9 -7 0 -7 -3 -10 -6 -7 -3 4 -21 -4 -40 -17 -19 -13 -48 -30 -64 -37 -17 -7
-30 -16 -30 -20 0 -5 -5 -8 -10 -8 -14 0 -203 -119 -212 -134 -4 -6 -8 -7 -8
-3 0 4 -6 3 -12 -2 -52 -43 -77 -61 -83 -61 -3 0 -12 -6 -20 -12 -7 -7 -25
-22 -40 -33 -87 -63 -195 -151 -294 -240 -113 -101 -352 -348 -418 -433 -10
-13 -35 -42 -55 -65 -21 -23 -40 -50 -44 -59 -3 -10 -9 -18 -13 -18 -4 0 -32
-35 -61 -77 -30 -43 -56 -80 -60 -83 -23 -19 -263 -410 -252 -410 4 0 2 -4 -5
-8 -14 -9 -189 -370 -236 -487 -77 -197 -97 -251 -97 -267 0 -9 -5 -20 -10
-23 -6 -4 -8 -11 -5 -16 4 -5 2 -9 -3 -9 -5 0 -9 -6 -9 -12 0 -7 -14 -58 -31
-113 -28 -89 -53 -182 -68 -254 -3 -14 -7 -28 -9 -32 -3 -4 -7 -24 -10 -45 -3
-22 -9 -46 -12 -54 -3 -8 -6 -24 -7 -35 -1 -11 -5 -26 -9 -32 -5 -7 -6 -13 -4
-13 3 0 -2 -33 -9 -72 -8 -40 -17 -93 -20 -118 -3 -25 -7 -52 -9 -60 -5 -19
-14 -91 -20 -155 -2 -27 -5 -50 -5 -50 -2 0 -5 -35 -15 -180 -11 -146 -13
-467 -3 -487 5 -10 4 -19 -2 -23 -6 -4 -7 -11 -4 -17 4 -6 8 -38 11 -72 8
-133 18 -220 40 -346 9 -52 17 -104 18 -115 1 -11 5 -33 9 -50 3 -16 8 -39 10
-50 2 -11 13 -56 25 -101 11 -45 22 -90 24 -100 1 -10 6 -24 9 -30 4 -6 10
-25 13 -43 6 -37 91 -295 128 -391 28 -72 80 -194 121 -282 15 -32 27 -61 28
-65 1 -5 9 -21 19 -38 10 -16 39 -70 65 -120 25 -49 54 -101 64 -115 9 -14 19
-30 21 -35 2 -6 23 -42 47 -80 24 -39 48 -79 55 -90 7 -11 14 -22 17 -25 3 -3
27 -36 53 -75 84 -124 222 -307 272 -361 5 -6 35 -40 65 -75 59 -68 309 -321
375 -379 102 -89 124 -107 165 -140 24 -19 48 -40 54 -45 6 -6 45 -35 86 -65
41 -30 84 -63 94 -72 11 -10 25 -18 32 -18 7 0 14 -3 16 -8 4 -11 126 -92 137
-92 5 0 11 -3 13 -7 4 -10 107 -73 119 -73 5 0 9 -4 9 -9 0 -5 8 -11 18 -15 9
-3 42 -19 72 -37 56 -32 251 -133 260 -135 3 0 36 -15 73 -32 38 -18 71 -32
73 -32 4 0 58 -23 119 -51 46 -21 335 -118 335 -112 0 3 7 0 15 -7 8 -7 15
-10 15 -6 0 3 17 -1 37 -9 42 -16 165 -48 228 -60 11 -2 31 -6 45 -10 14 -3
34 -8 45 -10 11 -2 29 -5 40 -8 11 -3 52 -10 90 -16 108 -17 120 -19 120 -21
0 -1 14 -3 30 -5 17 -2 53 -6 80 -9 156 -18 234 -21 580 -21 368 0 429 3 600
26 44 6 89 13 100 14 58 8 115 18 160 26 28 6 61 13 75 15 14 3 45 10 70 15
25 6 54 12 65 15 53 11 290 79 362 104 45 16 84 26 87 23 3 -4 6 -1 6 5 0 7 6
12 13 12 12 0 137 46 207 77 19 8 52 22 74 31 21 10 95 46 165 80 69 35 149
75 176 89 28 14 52 28 55 32 3 3 25 17 50 30 82 45 392 255 436 296 6 5 28 24
48 40 114 90 200 169 351 320 146 146 195 199 263 283 35 43 65 79 81 98 9 11
121 164 188 258 15 21 27 42 25 47 -1 5 2 9 7 9 8 0 49 61 74 110 4 8 21 35
37 60 17 25 33 53 36 63 4 9 11 17 16 17 5 0 7 4 4 8 -3 5 5 24 18 43 28 42
159 305 205 414 19 44 42 98 51 120 25 58 71 183 74 198 1 6 4 17 7 22 4 6 16
42 28 80 13 39 25 77 28 85 7 18 7 18 29 103 28 112 1 216 -80 300 -64 67
-125 92 -221 92 -75 0 -165 -19 -165 -35 0 -4 -13 -13 -30 -20 -16 -7 -30 -16
-30 -20 0 -4 -11 -18 -25 -31 -13 -13 -25 -30 -25 -36 0 -7 -4 -13 -10 -13 -5
0 -10 -9 -10 -20 0 -11 -4 -20 -8 -20 -5 0 -9 -6 -9 -12 0 -15 -53 -188 -62
-203 -3 -5 -6 -14 -7 -20 -2 -15 -73 -202 -96 -255 -39 -89 -51 -116 -81 -180
-17 -36 -32 -67 -32 -70 -2 -10 -83 -160 -133 -245 -35 -60 -170 -271 -185
-290 -4 -5 -40 -53 -79 -105 -40 -52 -77 -100 -83 -106 -5 -6 -23 -28 -39 -49
-71 -90 -259 -282 -371 -380 -38 -33 -76 -67 -85 -76 -10 -9 -62 -50 -116 -91
-187 -141 -367 -256 -529 -336 -27 -14 -53 -30 -57 -36 -4 -6 -8 -8 -8 -4 0 4
-27 -6 -60 -23 -64 -32 -115 -52 -115 -47 -1 2 -12 -4 -25 -13 -20 -12 -108
-49 -130 -55 -3 0 -12 -4 -20 -7 -41 -18 -332 -109 -355 -112 -5 0 -37 -7 -70
-15 -33 -7 -62 -14 -65 -15 -3 0 -14 -4 -25 -7 -11 -4 -38 -9 -59 -13 -21 -3
-48 -8 -60 -10 -12 -3 -37 -7 -56 -10 -19 -2 -50 -7 -68 -9 -129 -19 -195 -27
-283 -31 -37 -1 -71 -5 -75 -8 -11 -6 -497 0 -579 7 -33 3 -80 8 -105 12 -25
3 -61 8 -80 10 -39 5 -82 11 -120 19 -14 2 -41 6 -60 9 -40 5 -53 7 -175 37
-49 11 -94 22 -100 23 -5 1 -19 5 -30 9 -11 3 -31 8 -45 11 -38 7 -263 84
-375 128 -302 120 -615 297 -880 498 -61 46 -112 86 -115 89 -3 3 -32 28 -65
56 -137 113 -362 340 -446 450 -13 17 -28 35 -35 40 -6 6 -26 30 -45 55 -19
25 -39 52 -46 60 -40 51 -87 118 -147 210 -38 58 -77 117 -88 132 -10 15 -23
38 -29 50 -5 13 -21 41 -34 63 -41 69 -120 229 -117 237 1 5 -2 8 -7 8 -4 0
-16 21 -26 48 -10 26 -30 72 -44 102 -14 30 -27 64 -28 74 -2 11 -7 24 -12 30
-7 9 -34 81 -36 96 0 3 -3 10 -6 15 -3 6 -11 30 -18 55 -7 25 -17 54 -21 65
-4 11 -16 47 -25 80 -9 33 -21 72 -25 88 -5 15 -6 27 -3 27 3 0 0 7 -7 15 -7
8 -10 15 -7 15 3 0 1 17 -4 38 -5 20 -12 47 -14 60 -3 12 -8 34 -11 50 -13 64
-33 181 -39 232 -4 30 -8 66 -10 80 -24 167 -24 553 0 780 8 77 15 137 20 165
2 17 7 48 10 70 8 53 14 85 20 115 3 14 7 39 9 55 2 17 6 37 9 45 5 13 14 55
32 135 2 11 14 56 25 100 12 44 22 88 23 98 1 9 4 17 8 17 4 0 9 12 12 28 6
29 11 48 19 72 68 195 109 303 120 314 4 6 8 16 8 24 0 14 159 340 210 430 48
85 204 324 243 372 7 9 25 33 41 55 17 22 33 42 36 45 3 3 19 24 36 47 17 24
34 40 37 36 4 -3 7 -1 7 5 0 16 9 26 151 178 54 58 219 215 263 249 20 17 45
37 54 46 22 21 137 108 184 139 21 14 38 28 38 33 0 4 7 7 15 7 8 0 15 5 15
10 0 6 5 10 11 10 6 0 25 11 42 24 39 30 236 146 246 146 5 0 19 8 32 19 13
10 41 24 62 32 20 7 37 17 37 21 0 4 4 8 10 8 5 0 40 14 77 32 38 17 70 32 73
33 3 1 23 9 45 19 81 35 302 114 338 121 20 4 40 11 43 16 3 5 10 7 15 3 5 -3
15 -1 22 4 7 6 26 13 42 16 17 3 55 12 85 20 30 8 66 17 80 20 14 3 36 7 50
10 114 25 153 32 220 41 30 4 64 9 75 12 24 6 55 9 150 18 39 3 102 9 140 13
99 9 583 9 685 -1 144 -15 154 -16 194 -22 62 -9 94 -14 201 -36 55 -11 105
-21 110 -23 6 -1 16 -5 23 -9 6 -5 12 -6 12 -3 0 2 15 0 33 -5 17 -6 57 -17
87 -25 30 -8 62 -17 70 -20 8 -3 17 -6 20 -6 3 -1 41 -14 85 -30 44 -17 89
-32 100 -35 11 -3 25 -10 31 -14 6 -5 14 -6 17 -2 4 3 7 1 7 -5 0 -7 3 -11 8
-10 8 1 45 -13 117 -46 28 -13 60 -27 73 -30 12 -4 22 -12 22 -17 0 -5 7 -9
16 -9 8 0 34 -11 57 -23 23 -13 78 -43 122 -67 44 -24 82 -48 83 -52 2 -4 8
-8 14 -8 5 0 29 -13 53 -30 24 -16 49 -30 55 -30 6 0 13 -7 16 -15 4 -8 12
-15 19 -15 8 0 20 -6 27 -13 7 -6 40 -30 73 -52 33 -22 71 -50 85 -62 14 -13
28 -23 32 -23 3 0 13 -6 20 -12 7 -7 56 -47 108 -89 52 -42 111 -91 130 -108
19 -18 64 -57 99 -89 165 -146 428 -423 601 -632 34 -41 73 -87 86 -102 13
-15 24 -30 24 -33 0 -3 8 -13 18 -23 9 -10 26 -30 37 -46 11 -15 27 -36 35
-45 8 -10 26 -33 40 -51 14 -19 48 -63 75 -99 28 -36 58 -77 67 -91 10 -14 30
-42 45 -63 15 -21 55 -77 88 -125 33 -48 66 -93 73 -100 7 -8 20 -28 28 -45 9
-16 25 -39 35 -50 10 -12 19 -25 19 -29 0 -5 8 -18 18 -29 11 -10 25 -32 33
-47 14 -28 24 -42 47 -67 7 -8 10 -15 5 -15 -4 0 -3 -4 3 -8 5 -4 21 -25 34
-47 13 -22 26 -42 29 -45 8 -7 29 -41 44 -70 6 -14 19 -33 28 -43 9 -9 22 -30
30 -45 7 -15 26 -46 41 -69 15 -23 28 -46 28 -52 0 -6 4 -11 9 -11 5 0 14 -13
21 -30 7 -16 16 -30 21 -30 5 0 9 -4 9 -10 0 -5 32 -61 70 -124 39 -62 70
-118 70 -123 0 -6 6 -16 14 -22 8 -7 21 -26 30 -44 9 -18 22 -41 29 -52 54
-88 77 -126 77 -129 0 -2 34 -61 75 -130 41 -69 75 -129 75 -133 0 -3 6 -14
14 -22 7 -9 26 -41 42 -71 16 -30 31 -57 34 -60 5 -5 13 -19 58 -99 14 -25 68
-120 120 -211 52 -91 106 -185 120 -210 14 -25 36 -62 49 -82 12 -21 23 -42
23 -48 0 -5 5 -10 10 -10 6 0 9 -3 8 -7 -1 -5 5 -19 14 -33 9 -14 51 -86 94
-160 42 -74 95 -166 118 -205 22 -38 44 -71 48 -73 4 -2 8 -8 8 -13 0 -5 12
-28 27 -52 15 -23 31 -51 37 -62 30 -54 102 -171 113 -183 6 -6 15 -22 19 -35
4 -12 10 -24 13 -27 9 -7 61 -88 61 -95 0 -3 5 -11 10 -18 6 -7 23 -32 39 -57
85 -135 266 -405 273 -408 4 -2 8 -8 8 -13 0 -11 201 -293 212 -297 4 -2 8
-10 8 -17 0 -7 3 -15 8 -17 4 -1 27 -30 52 -63 24 -33 58 -76 75 -96 50 -60
65 -79 65 -85 0 -3 10 -15 23 -27 13 -12 36 -40 53 -61 16 -22 38 -49 49 -61
11 -11 52 -56 90 -100 89 -100 300 -312 390 -390 38 -33 76 -67 85 -75 8 -9
33 -29 55 -45 47 -35 73 -56 89 -70 6 -6 34 -26 61 -45 28 -19 52 -37 55 -40
3 -3 37 -25 75 -50 39 -25 73 -49 77 -55 4 -5 8 -6 8 -1 0 5 8 2 18 -6 30 -25
282 -163 282 -154 0 3 20 -6 46 -20 25 -13 49 -24 55 -24 5 0 28 -9 52 -19 40
-19 184 -69 217 -76 8 -2 49 -12 90 -23 97 -27 139 -35 221 -47 26 -3 57 -8
69 -10 96 -18 439 -25 585 -10 44 4 98 9 120 11 22 2 51 5 65 8 14 3 43 7 65
11 22 3 47 7 55 10 8 2 31 6 50 9 103 15 456 123 532 162 15 8 28 11 28 7 0
-5 4 -3 8 3 4 5 39 23 77 39 39 16 75 32 80 36 6 4 44 25 85 47 126 66 143 76
164 95 11 9 23 17 27 17 7 0 101 62 134 87 6 5 44 33 85 63 73 53 87 64 140
110 14 12 45 38 69 58 89 75 301 292 396 407 28 33 53 62 58 63 4 2 7 10 7 18
0 8 4 14 8 14 7 0 48 49 82 100 8 13 30 40 48 62 17 22 32 43 32 47 0 4 8 16
18 27 16 18 43 56 67 96 5 9 44 72 86 140 89 143 196 332 241 427 17 36 34 68
37 71 3 3 7 10 8 15 1 6 27 64 58 130 32 66 58 125 60 130 12 41 19 55 26 55
5 0 8 3 7 8 -3 7 94 260 113 294 5 10 9 23 9 29 0 6 6 25 14 42 8 18 38 102
66 187 28 85 54 162 57 170 3 8 8 23 9 33 2 9 13 45 25 80 12 34 23 69 24 77
2 8 16 58 31 110 14 52 27 102 29 110 1 8 5 22 8 30 5 12 64 238 72 275 5 23
19 91 21 98 1 4 2 8 4 10 1 1 3 11 5 22 1 11 10 54 20 95 9 41 19 84 21 95 1
11 5 31 8 45 3 14 8 36 11 50 25 125 35 179 39 200 3 14 7 35 10 46 2 12 7 39
11 60 8 52 14 88 25 154 5 30 12 73 15 95 4 22 8 47 10 55 3 8 7 35 10 60 6
49 13 91 20 130 3 14 7 45 9 70 5 48 16 135 21 162 9 47 35 263 41 343 1 17 3
30 4 30 1 0 3 21 5 47 2 26 6 71 10 100 9 72 12 98 20 202 4 49 8 98 10 110 3
19 10 106 20 261 2 28 6 88 9 135 15 228 22 353 31 585 4 94 8 215 11 270 10
267 13 995 3 995 -6 0 -7 5 -4 10 10 16 -40 113 -77 149 -178 175 -475 99
-538 -139 -8 -30 -13 -165 -15 -405 -4 -374 -12 -739 -20 -885 -2 -47 -7 -139
-11 -205 -9 -174 -12 -239 -19 -340 -4 -49 -8 -117 -11 -150 -2 -33 -6 -87 -8
-120 -3 -33 -8 -94 -11 -135 -3 -41 -8 -93 -10 -115 -4 -37 -9 -81 -20 -195
-7 -64 -16 -150 -21 -185 -2 -16 -6 -52 -9 -80 -9 -83 -14 -126 -20 -164 -3
-20 -8 -56 -11 -81 -2 -25 -7 -56 -9 -70 -3 -14 -7 -45 -10 -70 -3 -25 -7 -56
-10 -70 -3 -14 -8 -45 -11 -70 -3 -25 -7 -56 -10 -70 -2 -14 -7 -41 -10 -60
-2 -19 -9 -57 -14 -85 -5 -27 -12 -66 -14 -85 -3 -19 -7 -44 -10 -55 -2 -11
-7 -40 -12 -65 -9 -52 -11 -59 -14 -62 -1 -2 -3 -19 -5 -38 -2 -19 -6 -46 -10
-60 -8 -36 -28 -132 -29 -150 -1 -9 -5 -20 -8 -25 -3 -6 -9 -32 -13 -60 -9
-52 -11 -62 -15 -70 -1 -3 -4 -9 -5 -15 -1 -5 -4 -13 -5 -17 -1 -5 -2 -12 -1
-16 1 -4 -6 -36 -15 -70 -9 -34 -18 -73 -20 -87 -3 -14 -8 -34 -11 -45 -4 -11
-8 -24 -9 -30 -1 -5 -10 -39 -19 -75 -9 -36 -21 -83 -26 -105 -5 -22 -12 -46
-14 -53 -2 -7 -5 -14 -5 -17 -1 -3 -6 -19 -11 -37 -6 -18 -19 -64 -30 -103
-11 -38 -22 -77 -26 -85 -3 -8 -7 -22 -9 -30 -2 -8 -17 -55 -34 -105 -17 -49
-33 -97 -35 -105 -5 -23 -84 -242 -95 -265 -5 -11 -25 -60 -44 -110 -18 -49
-44 -112 -57 -140 -12 -27 -23 -54 -25 -60 -7 -31 -196 -417 -242 -495 -12
-19 -39 -67 -60 -105 -38 -68 -234 -365 -260 -395 -7 -8 -35 -44 -63 -80 -142
-180 -374 -417 -509 -521 -25 -19 -47 -37 -50 -41 -5 -6 -21 -18 -130 -92 -65
-45 -187 -117 -245 -146 -27 -14 -53 -29 -56 -33 -3 -5 -10 -9 -15 -9 -9 -1
-30 -9 -119 -48 -27 -13 -54 -23 -60 -25 -5 -1 -22 -7 -37 -13 -30 -12 -127
-41 -143 -43 -5 -1 -17 -5 -26 -10 -9 -4 -27 -10 -40 -13 -13 -2 -58 -12 -99
-21 -41 -9 -91 -18 -110 -20 -19 -2 -52 -7 -73 -11 -142 -23 -482 -23 -610 2
-71 13 -180 36 -195 40 -7 2 -13 3 -15 3 -9 -1 -251 88 -287 106 -25 12 -58
28 -75 36 -78 36 -337 195 -355 218 -3 4 -18 15 -35 25 -16 11 -34 25 -38 33
-4 7 -12 13 -17 13 -6 0 -18 8 -28 18 -10 9 -43 37 -73 62 -58 48 -335 322
-411 407 -26 29 -86 101 -134 160 -47 60 -93 113 -100 119 -8 6 -14 16 -14 23
0 6 -4 11 -8 11 -4 0 -15 12 -24 28 -9 15 -25 37 -35 49 -46 55 -53 64 -53 73
0 6 -4 10 -8 10 -4 0 -15 12 -24 28 -9 15 -25 37 -35 49 -10 12 -47 65 -83
118 -36 54 -70 102 -75 109 -10 10 -270 408 -287 439 -4 6 -35 57 -69 112 -34
55 -70 114 -79 130 -9 17 -49 83 -89 148 -39 65 -71 120 -71 122 0 2 -23 40
-50 84 -28 44 -50 83 -50 85 0 3 -22 41 -49 85 -27 44 -47 82 -43 85 3 3 0 6
-6 6 -7 0 -12 4 -12 10 0 5 -16 34 -35 64 -19 30 -35 57 -35 59 0 2 -45 82
-100 177 -55 95 -100 174 -100 176 0 2 -25 44 -55 95 -30 50 -55 94 -55 97 0
3 -18 33 -40 68 -22 35 -40 66 -40 68 0 3 -24 45 -53 93 -29 48 -59 102 -67
118 -8 17 -17 32 -20 35 -3 3 -19 28 -35 55 -16 28 -38 64 -47 80 -10 17 -26
46 -36 65 -9 19 -19 37 -23 40 -11 10 -69 111 -69 120 0 6 -4 10 -9 10 -5 0
-12 11 -15 25 -4 14 -11 25 -16 25 -6 0 -10 4 -10 9 0 4 -25 48 -55 97 -30 49
-64 105 -75 124 -11 19 -29 49 -40 65 -11 17 -27 43 -36 60 -9 16 -23 35 -30
43 -8 7 -14 20 -14 28 0 8 -4 14 -9 14 -5 0 -16 15 -25 34 -8 18 -22 39 -31
46 -8 7 -15 17 -15 22 0 5 -36 63 -80 129 -44 65 -80 124 -80 129 0 6 -4 10
-8 10 -5 0 -15 12 -23 28 -8 15 -16 29 -20 32 -6 6 -107 150 -129 185 -33 52
-164 230 -172 233 -4 2 -8 8 -8 13 0 5 -8 18 -17 30 -10 11 -28 33 -40 47 -13
15 -23 30 -23 34 0 4 -6 13 -13 20 -7 7 -40 49 -75 93 -107 136 -218 271 -275
336 -18 19 -61 68 -97 109 -36 40 -101 111 -145 157 -45 45 -80 83 -79 83 1 0
-32 33 -73 73 -42 39 -94 90 -117 112 -48 47 -154 142 -187 169 -13 11 -40 33
-60 50 -20 17 -50 42 -67 56 -18 14 -47 37 -65 53 -39 33 -45 38 -77 58 -14 9
-36 26 -50 38 -14 11 -29 24 -35 28 -20 16 -271 181 -325 214 -30 18 -58 38
-62 44 -4 5 -8 7 -8 3 0 -3 -35 14 -77 38 -136 78 -423 214 -449 214 -8 0 -14
4 -14 8 0 4 -10 8 -22 9 -11 1 -24 7 -28 13 -4 7 -10 11 -14 10 -6 -2 -40 9
-91 30 -37 15 -280 92 -300 94 -11 2 -27 6 -35 9 -37 15 -142 37 -150 32 -5
-3 -11 -1 -15 5 -3 5 -19 10 -35 10 -16 0 -32 5 -35 10 -4 6 -9 8 -13 6 -4 -2
-52 4 -107 14 -167 30 -347 50 -492 53 -29 1 -53 5 -53 9 0 5 -8 4 -19 -1 -10
-6 -21 -8 -24 -5 -4 4 -146 12 -150 8z"/>
</g>
</svg>
