<?xml version="1.0" encoding="utf-8"?>
<!-- Generator: Adobe Illustrator 22.0.1, SVG Export Plug-In . SVG Version: 6.00 Build 0)  -->
<svg version="1.2" baseProfile="tiny" id="Layer_1" xmlns="http://www.w3.org/2000/svg" xmlns:xlink="http://www.w3.org/1999/xlink"
	 x="0px" y="0px" viewBox="0 0 423.65 150.5" xml:space="preserve">
<g>
	<g>
		<path fill="#FFFFFF" d="M25.62,66.15c-3.17,0-6.07-0.53-8.69-1.59c-2.62-1.06-4.85-2.63-6.69-4.72c-1.84-2.09-3.26-4.69-4.28-7.79
			c-1.01-3.1-1.52-6.7-1.52-10.79c0-4.09,0.51-7.69,1.52-10.79c1.01-3.1,2.44-5.7,4.28-7.79c1.84-2.09,4.07-3.67,6.69-4.72
			c2.62-1.06,5.52-1.59,8.69-1.59s6.07,0.53,8.69,1.59c2.62,1.06,4.85,2.63,6.69,4.72c1.84,2.09,3.26,4.69,4.28,7.79
			c1.01,3.1,1.52,6.7,1.52,10.79c0,4.09-0.51,7.69-1.52,10.79c-1.01,3.1-2.44,5.7-4.28,7.79c-1.84,2.09-4.07,3.67-6.69,4.72
			C31.69,65.62,28.79,66.15,25.62,66.15z M25.62,56.84c3.17,0,5.64-1.03,7.41-3.1c1.77-2.07,2.65-5.03,2.65-8.9v-7.17
			c0-3.86-0.89-6.83-2.65-8.9c-1.77-2.07-4.24-3.1-7.41-3.1s-5.64,1.03-7.41,3.1c-1.77,2.07-2.65,5.03-2.65,8.9v7.17
			c0,3.86,0.88,6.83,2.65,8.9C19.97,55.81,22.45,56.84,25.62,56.84z"/>
		<path fill="#FFFFFF" d="M96.37,35.95l-5.79-10.69h-0.21v40.06h-5.65V17.19h6.69l17.58,29.38l5.79,10.69h0.21V17.19h5.65v48.13
			h-6.69L96.37,35.95z"/>
		<path fill="#FFFFFF" d="M149.75,65.32V17.19h29.38v5.1h-23.58v16.14h22.2v5.1h-22.2v16.69h23.58v5.1H149.75z"/>
		<path fill="#FFFFFF" d="M14.1,137.33L2.38,89.19h6.14l5.17,23.17l4,18h0.14l4.48-18l6.07-23.17H35l5.86,23.17l4.48,17.93h0.21
			l4.14-17.93l5.45-23.17h5.93l-12.34,48.13h-6.41l-6.27-24l-4.41-17.65h-0.14l-4.55,17.65l-6.41,24H14.1z"/>
		<path fill="#FFFFFF" d="M85.13,89.19h19.79c4,0,7.14,1.13,9.41,3.38c2.28,2.25,3.41,5.26,3.41,9.03c0,1.79-0.25,3.31-0.76,4.55
			c-0.51,1.24-1.15,2.27-1.93,3.07c-0.78,0.8-1.63,1.4-2.55,1.79c-0.92,0.39-1.77,0.65-2.55,0.79v0.41
			c0.87,0.05,1.85,0.28,2.93,0.69c1.08,0.41,2.1,1.07,3.07,1.97s1.78,2.05,2.45,3.45c0.67,1.4,1,3.09,1,5.07
			c0,1.98-0.31,3.82-0.93,5.52c-0.62,1.7-1.48,3.17-2.59,4.41c-1.1,1.24-2.41,2.22-3.93,2.93s-3.17,1.07-4.96,1.07H85.13V89.19z
			 M90.92,110.02h13.31c2.3,0,4.09-0.57,5.38-1.72c1.29-1.15,1.93-2.8,1.93-4.96v-2.34c0-2.16-0.64-3.81-1.93-4.96
			c-1.29-1.15-3.08-1.72-5.38-1.72H90.92V110.02z M90.92,132.22h14.27c2.48,0,4.44-0.63,5.86-1.9c1.42-1.26,2.14-3.11,2.14-5.55
			v-2.34c0-2.44-0.71-4.29-2.14-5.55c-1.43-1.26-3.38-1.9-5.86-1.9H90.92V132.22z"/>
		<path fill="#FFFFFF" d="M165.96,137.33v-19.03l-16.55-29.1h6.62l12.83,23.17h0.21l12.83-23.17h6.62l-16.76,28.89v19.24H165.96z"/>
	</g>
	<path fill="#FFFFFF" d="M244.95-0.5c0.83,6.29,1.42,12.58,2.02,18.88l-0.02,18.88V75v37.75v18.88c-0.61,6.29-1.2,12.58-2,18.88
		c-0.8-6.29-1.39-12.58-2-18.88v-18.88V75V37.25l-0.02-18.88C243.53,12.08,244.12,5.79,244.95-0.5z"/>
	<g>
		<polygon fill="none" stroke="#FFFFFF" stroke-width="4" stroke-miterlimit="10" points="350.87,16.12 296.41,55.68 317.21,119.7 
			384.53,119.7 405.34,55.68 		"/>
		<polygon fill="none" stroke="#FFFFFF" stroke-width="4" stroke-miterlimit="10" points="351.06,145.06 418.94,95.74 393.01,15.94 
			309.11,15.94 283.19,95.74 		"/>
		<polygon fill="none" stroke="#FFFFFF" stroke-width="4" stroke-miterlimit="10" points="350.97,119.88 395,87.89 378.18,36.14 
			323.75,36.14 306.94,87.89 		"/>
		<polygon fill="none" stroke="#FFFFFF" stroke-width="4" stroke-miterlimit="10" points="351.02,36.3 315.5,61.99 329.06,103.56 
			372.97,103.56 386.54,61.99 		"/>
		<polygon fill="none" stroke="#FFFFFF" stroke-width="4" stroke-miterlimit="10" points="351.02,103.56 379.65,82.96 368.71,49.64 
			333.32,49.64 322.39,82.96 		"/>
	</g>
</g>
<g>
</g>
<g>
</g>
<g>
</g>
<g>
</g>
<g>
</g>
<g>
</g>
<g>
</g>
<g>
</g>
<g>
</g>
<g>
</g>
<g>
</g>
</svg>
